<?xml version="1.0" encoding="UTF-8"?>
<svg width="100px" height="100px" viewBox="0 0 100 100" version="1.1" xmlns="http://www.w3.org/2000/svg" xmlns:xlink="http://www.w3.org/1999/xlink">
    <title>icon_logo_signet</title>
    <g id="Registrierung" stroke="none" stroke-width="1" fill="none" fill-rule="evenodd">
        <g id="Registrierung_Schüler:innen" transform="translate(-260, -287)">
            <g id="Group-5-Copy-21" transform="translate(127, 137)">
                <g id="icon_logo_signet" transform="translate(133, 150)">
                    <circle id="Oval-Copy-3" fill="#FFFFFF" cx="50" cy="50" r="50"></circle>
                    <g id="symbol-lern-fair-copy-2" transform="translate(17, 20)" fill-rule="nonzero">
                        <polygon id="Path" fill="#F4CC54" points="10.4105433 31.8469358 13.5281332 31.8469358 13.5281332 28.7296064 10.4105433 28.7296064"></polygon>
                        <polygon id="Path" fill="#F4CC54" points="11.6492716 43.2037896 8.21157172 43.2037896 8.21157172 46.6414461 11.6492716 46.6414461"></polygon>
                        <polygon id="Path" fill="#F4CC54" points="27.7660209 47.727433 22.0457952 47.727433 22.0457952 42.0071206 27.7660209 42.0071206"></polygon>
                        <polygon id="Path" fill="#F4CC54" points="17.3275683 51.8608677 20.7513787 51.8608677 20.7513787 48.4371008 17.3275683 48.4371008"></polygon>
                        <polyline id="Path" fill="#405B73" points="6.56922265 24.1087364 9.85383398 24.1087364 9.85383398 20.8242987 6.56922265 20.8242987 6.56922265 24.1087364"></polyline>
                        <polygon id="Path" fill="#405B73" points="4.78776135 30.5942746 8.21152832 30.5942746 8.21152832 27.1705077 4.78776135 27.1705077"></polygon>
                        <polyline id="Path" fill="#405B73" points="6.06820158 39.4740191 11.1899625 39.4740191 11.1899625 34.3522582 6.06820158 34.3522582 6.06820158 39.4740191"></polyline>
                        <polygon id="Path" fill="#405B73" points="0 43.9416704 4.78771794 43.9416704 4.78771794 48.7292148 0 48.7292148"></polygon>
                        <polygon id="Path" fill="#405B73" points="18.3296538 36.0780312 14.2378443 36.0780312 14.2378443 40.1697973 18.3296538 40.1697973"></polygon>
                        <polygon id="Path" fill="#405B73" points="8.21157172 49.5087641 12.860134 49.5087641 12.860134 54.1574133 8.21157172 54.1574133"></polygon>
                        <polygon id="Path" fill="#405B73" points="18.1627192 43.6352329 15.1564625 43.6352329 15.1564625 46.6414461 18.1627192 46.6414461"></polygon>
                        <path d="M63.89744,35.3110692 L63.89744,35.3206183 C63.8878909,35.3297333 63.8878909,35.3297333 63.8787759,35.3392823 C63.3349144,37.4852133 61.9950096,39.2938894 60.0643662,40.4558347 C56.8220311,42.4146912 52.7172435,42.1147644 51.44288,41.6086649 C50.2900497,41.1589917 49.3811542,40.4185066 48.6688822,39.5564882 C48.6597672,39.5469391 48.6597672,39.5469391 48.6502181,39.5469391 C48.0842201,38.8012455 47.6184871,37.9887085 47.2821003,37.1197453 C47.2126527,36.9265942 47.1475455,36.7273663 47.0889491,36.5320449 C47.5386224,37.3280881 48.1962044,37.984802 49.0248011,38.422322 C49.7370731,38.797339 50.4962223,38.9848476 51.2649205,38.9848476 C51.7896839,38.9848476 52.3048984,38.9002083 52.8109978,38.7317979 L52.9047521,38.6940357 C53.6730162,38.431871 54.3384111,38.0008618 54.8631745,37.4478852 L56.2312924,38.5911665 L57.7591397,39.86553 L58.199698,37.9257716 L58.58383,36.2108498 C58.8182157,36.2577269 59.0708314,36.2763909 59.3147661,36.2763909 C59.8299805,36.2763909 60.345629,36.1921857 60.8517284,36.0233412 C62.6604045,35.4204492 63.8644524,33.8366097 64.0628121,32.049202 C64.1973668,33.0466432 64.1726261,34.0662209 63.9534321,35.0675686 C63.9347681,35.1517738 63.916104,35.226864 63.89744,35.3110692 L63.89744,35.3110692 Z M46.832427,31.7405942 L50.1962954,30.606862 C51.1334041,30.2973861 52.1456029,30.3724764 53.0267194,30.8408136 C53.7198933,31.2062817 54.2637549,31.7688073 54.6010098,32.4997433 C54.6947641,32.6968009 54.7698543,32.9025394 54.8353955,33.1182611 C54.9478138,33.4932781 54.9851419,33.8774102 54.9760269,34.2428782 C54.9569288,34.7489777 54.8353955,35.226864 54.6196739,35.6674223 C54.4508294,36.0328903 54.2168778,36.3701452 53.9260659,36.660523 C53.5419338,37.0542041 53.0640475,37.354131 52.5110709,37.5416395 L52.4268657,37.5698526 C51.480208,37.8884435 50.4775582,37.8133533 49.5968758,37.3445819 C48.7157593,36.8853596 48.0785775,36.0984315 47.8068637,35.1426588 L46.832427,31.7405942 Z M48.2847501,28.7326448 C48.6597672,28.3762917 49.0998914,28.114127 49.6342039,27.9639466 C52.0145206,27.3081007 53.9074019,28.5733493 54.0853614,28.7044317 C54.0949104,28.7044317 54.0949104,28.7135467 54.1040254,28.7135467 C54.1040254,28.7135467 54.9009367,26.4365333 57.4214507,25.7711384 C57.7309266,25.6869332 58.0404025,25.630507 58.3307803,25.6022939 C59.1802113,25.5254675 59.9636671,25.6769501 60.665522,26.0558736 L57.8155659,27.0177229 C56.1661853,27.5611505 55.0038059,28.9388173 54.6761001,30.5413208 C54.3570751,30.231845 53.9920411,29.9787952 53.588811,29.7635077 C52.4082017,29.1354409 51.0678629,29.0325716 49.8030484,29.4540318 L47.2399977,30.3138799 C47.4939155,29.7049112 47.8298683,29.1554071 48.2847501,28.7326448 L48.2847501,28.7326448 Z M57.4214507,35.8735948 L57.0095396,37.6540578 L55.5849956,36.4638995 C55.8284963,36.0137922 56.0068898,35.5267909 56.10021,35.0111424 C56.4001369,35.2924052 56.7373918,35.5359058 57.1124089,35.7329634 C57.2152781,35.7889556 57.3185815,35.8358327 57.4214507,35.8735948 L57.4214507,35.8735948 Z M56.3628088,33.4650651 C56.1753002,33.1746873 56.0251198,32.8465473 55.9317996,32.4997433 C55.8849224,32.3308988 55.8471603,32.1624884 55.8284963,31.9936439 C55.5941106,30.3351483 56.5689814,28.7135467 58.199698,28.1701192 L61.7137468,26.9895099 L62.7354947,30.5413208 C63.2598241,32.368661 62.2571743,34.2710913 60.4484982,34.88006 C59.9237348,35.0580195 59.3898563,35.1048966 58.8555438,35.0298064 C58.4527477,34.9833633 58.0590666,34.8518469 57.6935985,34.6643384 C57.6935985,34.6552234 57.6840495,34.6552234 57.6840495,34.6552234 C57.140622,34.3644115 56.6909487,33.9616154 56.3628088,33.4650651 L56.3628088,33.4650651 Z M63.4568817,27.7859871 C63.3257994,27.5702655 63.185168,27.3640929 63.0354216,27.1674693 C62.6413064,26.6240418 62.2011822,26.1270574 61.7041978,25.7055972 C61.4511481,25.4807606 61.1889833,25.274588 60.9081546,25.0870795 C57.8811071,22.2662046 53.2797691,21.000956 53.2797691,21.000956 C53.8796228,23.2219772 52.5110709,24.178184 52.5110709,24.178184 C50.6650668,22.0413679 48.2005449,21.2353417 48.2005449,21.2353417 C48.4535946,22.416385 48.3876194,23.3908217 48.1723318,24.196848 C39.8785514,16.7932992 35.9052803,0 35.9052803,0 C35.9052803,0 34.9772867,2.48362 34.1057192,6.21339048 C33.8622185,7.23470434 33.8999807,8.30289532 34.2463506,9.29643013 C34.6960239,10.6085558 35.3991809,12.107756 36.4673719,13.5978412 C36.3362895,13.5323 34.7993272,12.6889457 33.2719139,10.3646211 C33.1217335,11.3203938 32.9251099,12.9793235 32.8126916,14.0666126 C32.7284864,14.8535407 32.8126916,15.640903 33.0561923,16.4000521 C33.5340786,17.8992523 34.5180644,20.289118 36.4204947,22.7627549 C36.2334202,22.6785497 34.2932278,21.7227771 32.606519,19.4453296 C32.7098223,22.5943445 33.2063727,25.7711384 34.368318,28.6388905 C34.5931546,29.2105311 34.9304095,29.7070815 35.3427547,30.1567547 C35.9990346,30.8503627 37.0954386,31.9094387 38.4917696,32.8087852 C38.6697291,32.9216375 38.8476886,33.0431708 39.0447461,33.1555892 C36.6175523,32.6308257 34.2745637,31.3377981 33.2814629,30.7848215 C19.6833179,23.2688544 11.3054192,8.02206657 11.3054192,8.02206657 C11.3054192,8.02206657 9.39365678,12.5765274 8.88755735,18.480442 L12.1958677,18.480442 L12.1958677,26.3896562 L15.8693422,26.3896562 L15.8693422,33.7367788 L20.6767225,33.7367788 L20.6767225,39.6689065 L30.1043218,39.6689065 L30.1043218,43.9985307 C30.591627,44.0827359 32.1565853,44.4573189 33.4125453,44.7481308 C33.3843322,44.8041229 33.3561191,44.851 33.3374551,44.9074262 C29.0733721,55.9278932 15.1102365,59.0018178 15.1102365,59.0018178 C42.8396237,64.6431336 58.0495175,44.5324091 58.0495175,44.5324091 C53.0640475,45.4508537 50.8525753,43.4546691 50.8525753,43.4546691 C50.8525753,43.4546691 56.2035133,43.9234404 60.5518016,41.3182871 C65.5468206,38.3194527 66.3055357,31.9936439 63.4568817,27.7859871 Z" id="Shape" fill="#405B73"></path>
                        <path d="M51.7614709,35.4234875 C50.9649936,35.6296601 50.1589673,35.1613228 49.9432457,34.3644115 C49.7370731,33.5679343 50.2149595,32.752793 51.0118708,32.5466205 C51.1525022,32.5092924 51.3022486,32.4901943 51.44288,32.4997433 C51.2271583,32.6777028 51.1242891,32.9776297 51.1993793,33.2680075 C51.3022486,33.6616886 51.7054787,33.8960743 52.1082748,33.7927709 C52.3895376,33.7181148 52.5957102,33.4932781 52.6425874,33.2120153 C52.7267926,33.3339827 52.7827847,33.4650651 52.8205468,33.6056965 C53.0358344,34.4021737 52.5579481,35.217315 51.7614709,35.4234875" id="Path" fill="#3D5572"></path>
                        <path d="M59.8208655,32.9403016 C59.0239542,33.1464742 58.208813,32.6685878 58.0026404,31.8812256 C57.7873528,31.0847484 58.2652391,30.269173 59.0617164,30.0634345 C59.2118968,30.0256724 59.3616432,30.0070083 59.5113896,30.0165574 C59.286553,30.1849678 59.1741347,30.4848947 59.2492249,30.7752725 C59.3520942,31.1785026 59.7644393,31.4128883 60.1581204,31.309585 C60.4393832,31.2344948 60.6551049,31.0096581 60.711097,30.7283953 C60.7861872,30.8503627 60.8421794,30.981445 60.8795074,31.1220765 C61.0861141,31.9185537 60.6077937,32.734129 59.8208655,32.9403016" id="Path" fill="#3D5572"></path>
                    </g>
                </g>
            </g>
        </g>
    </g>
</svg>